<?xml version="1.0"?>
<svg version="1.1" xmlns="http://www.w3.org/2000/svg" width="400" height="200"><path fill="#d4af37" d="M23.4,104.725l8.05,0l0,2.8l-8.05,0l0,8.575l8.05,0l0.7-3.5l2.275,0l0,6.3l-17.675,0l0-2.1l2.975-0.7l0-18.9l-2.975-0.7l0-1.925l6.65-0.175l10.675,0l0,5.95l-2.275,0l-0.875-3.15l-7.525,0l0,7.525z M53.101,124.325l0-7.105c-1.155,0.91-3.01,2.03-5.25,2.03c-5.25,0-7.35-3.5-7.35-9.1c0-5.95,3.325-10.15,9.625-10.15c3.85,0,6.475,0.7,6.475,0.7l0,23.625l2.8,0.7l0,1.925l-9.8,0l0-1.925z M53.101,114.175l0-11.025s-1.05-0.35-3.5-0.35c-4.06,0-5.425,3.15-5.425,7s1.225,6.65,4.375,6.65s4.55-2.275,4.55-2.275z M83.502,116.8l0,1.925l-5.775,0.175l-0.35-2.45c-0.84,0.735-3.605,2.8-6.475,2.8c-3.85,0-5.6-2.415-5.6-6.265l0-9.835l-2.975-0.7l0-1.925l6.475-0.175l0,12.285c0,2.45,0.875,3.64,3.15,3.64c2.975,0,5.075-2.765,5.075-2.765l0-10.36l-2.975-0.7l0-1.925l6.475-0.175l0,15.75z M90.453,94.575c0-1.575,1.05-2.45,2.275-2.45c1.4,0,2.275,0.7,2.275,2.45c0,1.575-1.225,2.45-2.275,2.45c-1.4,0-2.275-0.875-2.275-2.45z M97.278,116.975l0,1.925l-9.1,0l0-1.925l2.975-0.875l0-12.95l-2.975-0.7l0-1.925l6.475-0.175l0,15.75z M113.679,100.525l0,2.625l-5.075,0l0,11.235c0,1.61,0.77,2.135,1.75,2.135c0.84,0,1.82-0.385,2.73-0.875l0.945,1.855c-1.575,1.155-3.15,1.75-4.9,1.75c-2.1,0-4.025-1.155-4.025-5.075l0-11.025l-3.5,0l0-2.275l3.5-0.35l0-4.41l3.5-0.7l0,5.11l5.075,0z M123.255,102.8l4.2,12.25l3.85-12.075l-2.45-0.525l0-1.925l8.295-0.175l0,2.1l-2.275,0.35l-4.97,13.86c-1.855,4.865-3.675,10.64-9.45,10.64c-0.875,0-2.24-0.175-2.24-0.175l0.315-2.45l1.75,0c2.45,0,4.025-2.31,5.565-5.705l-6.265-15.995l-2.1-0.525l0-1.925l8.225-0.175l0,2.1z"/><path fill="#" d=""/></svg>
